<svg xmlns="http://www.w3.org/2000/svg" viewBox="0 0 640 698" font-family="sans-serif"><text x="4" y="18" font-size="16">Ginnie monthly SMM: 256 leaves, 0 admissions</text><text x="4" y="38" font-size="13"><tspan fill="#b48a00">&#9679; free</tspan>  <tspan fill="#15803d">&#9679; weld (species 1)</tspan>  <tspan fill="#dc2626">&#9679; hanging (species 2)</tspan></text><g transform="translate(0,50)"><rect x="0" y="0" width="640" height="640" fill="#f8fafc"/><rect x="0.0" y="600.0" width="40.0" height="40.0" fill="none" stroke="#64748b" stroke-width="1"/><rect x="0.0" y="560.0" width="40.0" height="40.0" fill="none" stroke="#64748b" stroke-width="1"/><rect x="40.0" y="600.0" width="40.0" height="40.0" fill="none" stroke="#64748b" stroke-width="1"/><rect x="40.0" y="560.0" width="40.0" height="40.0" fill="none" stroke="#64748b" stroke-width="1"/><rect x="0.0" y="520.0" width="40.0" height="40.0" fill="none" stroke="#64748b" stroke-width="1"/><rect x="0.0" y="480.0" width="40.0" height="40.0" fill="none" stroke="#64748b" stroke-width="1"/><rect x="40.0" y="520.0" width="40.0" height="40.0" fill="none" stroke="#64748b" stroke-width="1"/><rect x="40.0" y="480.0" width="40.0" height="40.0" fill="none" stroke="#64748b" stroke-width="1"/><rect x="80.0" y="600.0" width="40.0" height="40.0" fill="none" stroke="#64748b" stroke-width="1"/><rect x="80.0" y="560.0" width="40.0" height="40.0" fill="none" stroke="#64748b" stroke-width="1"/><rect x="120.0" y="600.0" width="40.0" height="40.0" fill="none" stroke="#64748b" stroke-width="1"/><rect x="120.0" y="560.0" width="40.0" height="40.0" fill="none" stroke="#64748b" stroke-width="1"/><rect x="80.0" y="520.0" width="40.0" height="40.0" fill="none" stroke="#64748b" stroke-width="1"/><rect x="80.0" y="480.0" width="40.0" height="40.0" fill="none" stroke="#64748b" stroke-width="1"/><rect x="120.0" y="520.0" width="40.0" height="40.0" fill="none" stroke="#64748b" stroke-width="1"/><rect x="120.0" y="480.0" width="40.0" height="40.0" fill="none" stroke="#64748b" stroke-width="1"/><rect x="0.0" y="440.0" width="40.0" height="40.0" fill="none" stroke="#64748b" stroke-width="1"/><rect x="0.0" y="400.0" width="40.0" height="40.0" fill="none" stroke="#64748b" stroke-width="1"/><rect x="40.0" y="440.0" width="40.0" height="40.0" fill="none" stroke="#64748b" stroke-width="1"/><rect x="40.0" y="400.0" width="40.0" height="40.0" fill="none" stroke="#64748b" stroke-width="1"/><rect x="0.0" y="360.0" width="40.0" height="40.0" fill="none" stroke="#64748b" stroke-width="1"/><rect x="0.0" y="320.0" width="40.0" height="40.0" fill="none" stroke="#64748b" stroke-width="1"/><rect x="40.0" y="360.0" width="40.0" height="40.0" fill="none" stroke="#64748b" stroke-width="1"/><rect x="40.0" y="320.0" width="40.0" height="40.0" fill="none" stroke="#64748b" stroke-width="1"/><rect x="80.0" y="440.0" width="40.0" height="40.0" fill="none" stroke="#64748b" stroke-width="1"/><rect x="80.0" y="400.0" width="40.0" height="40.0" fill="none" stroke="#64748b" stroke-width="1"/><rect x="120.0" y="440.0" width="40.0" height="40.0" fill="none" stroke="#64748b" stroke-width="1"/><rect x="120.0" y="400.0" width="40.0" height="40.0" fill="none" stroke="#64748b" stroke-width="1"/><rect x="80.0" y="360.0" width="40.0" height="40.0" fill="none" stroke="#64748b" stroke-width="1"/><rect x="80.0" y="320.0" width="40.0" height="40.0" fill="none" stroke="#64748b" stroke-width="1"/><rect x="120.0" y="360.0" width="40.0" height="40.0" fill="none" stroke="#64748b" stroke-width="1"/><rect x="120.0" y="320.0" width="40.0" height="40.0" fill="none" stroke="#64748b" stroke-width="1"/><rect x="160.0" y="600.0" width="40.0" height="40.0" fill="none" stroke="#64748b" stroke-width="1"/><rect x="160.0" y="560.0" width="40.0" height="40.0" fill="none" stroke="#64748b" stroke-width="1"/><rect x="200.0" y="600.0" width="40.0" height="40.0" fill="none" stroke="#64748b" stroke-width="1"/><rect x="200.0" y="560.0" width="40.0" height="40.0" fill="none" stroke="#64748b" stroke-width="1"/><rect x="160.0" y="520.0" width="40.0" height="40.0" fill="none" stroke="#64748b" stroke-width="1"/><rect x="160.0" y="480.0" width="40.0" height="40.0" fill="none" stroke="#64748b" stroke-width="1"/><rect x="200.0" y="520.0" width="40.0" height="40.0" fill="none" stroke="#64748b" stroke-width="1"/><rect x="200.0" y="480.0" width="40.0" height="40.0" fill="none" stroke="#64748b" stroke-width="1"/><rect x="240.0" y="600.0" width="40.0" height="40.0" fill="none" stroke="#64748b" stroke-width="1"/><rect x="240.0" y="560.0" width="40.0" height="40.0" fill="none" stroke="#64748b" stroke-width="1"/><rect x="280.0" y="600.0" width="40.0" height="40.0" fill="none" stroke="#64748b" stroke-width="1"/><rect x="280.0" y="560.0" width="40.0" height="40.0" fill="none" stroke="#64748b" stroke-width="1"/><rect x="240.0" y="520.0" width="40.0" height="40.0" fill="none" stroke="#64748b" stroke-width="1"/><rect x="240.0" y="480.0" width="40.0" height="40.0" fill="none" stroke="#64748b" stroke-width="1"/><rect x="280.0" y="520.0" width="40.0" height="40.0" fill="none" stroke="#64748b" stroke-width="1"/><rect x="280.0" y="480.0" width="40.0" height="40.0" fill="none" stroke="#64748b" stroke-width="1"/><rect x="160.0" y="440.0" width="40.0" height="40.0" fill="none" stroke="#64748b" stroke-width="1"/><rect x="160.0" y="400.0" width="40.0" height="40.0" fill="none" stroke="#64748b" stroke-width="1"/><rect x="200.0" y="440.0" width="40.0" height="40.0" fill="none" stroke="#64748b" stroke-width="1"/><rect x="200.0" y="400.0" width="40.0" height="40.0" fill="none" stroke="#64748b" stroke-width="1"/><rect x="160.0" y="360.0" width="40.0" height="40.0" fill="none" stroke="#64748b" stroke-width="1"/><rect x="160.0" y="320.0" width="40.0" height="40.0" fill="none" stroke="#64748b" stroke-width="1"/><rect x="200.0" y="360.0" width="40.0" height="40.0" fill="none" stroke="#64748b" stroke-width="1"/><rect x="200.0" y="320.0" width="40.0" height="40.0" fill="none" stroke="#64748b" stroke-width="1"/><rect x="240.0" y="440.0" width="40.0" height="40.0" fill="none" stroke="#64748b" stroke-width="1"/><rect x="240.0" y="400.0" width="40.0" height="40.0" fill="none" stroke="#64748b" stroke-width="1"/><rect x="280.0" y="440.0" width="40.0" height="40.0" fill="none" stroke="#64748b" stroke-width="1"/><rect x="280.0" y="400.0" width="40.0" height="40.0" fill="none" stroke="#64748b" stroke-width="1"/><rect x="240.0" y="360.0" width="40.0" height="40.0" fill="none" stroke="#64748b" stroke-width="1"/><rect x="240.0" y="320.0" width="40.0" height="40.0" fill="none" stroke="#64748b" stroke-width="1"/><rect x="280.0" y="360.0" width="40.0" height="40.0" fill="none" stroke="#64748b" stroke-width="1"/><rect x="280.0" y="320.0" width="40.0" height="40.0" fill="none" stroke="#64748b" stroke-width="1"/><rect x="0.0" y="280.0" width="40.0" height="40.0" fill="none" stroke="#64748b" stroke-width="1"/><rect x="0.0" y="240.0" width="40.0" height="40.0" fill="none" stroke="#64748b" stroke-width="1"/><rect x="40.0" y="280.0" width="40.0" height="40.0" fill="none" stroke="#64748b" stroke-width="1"/><rect x="40.0" y="240.0" width="40.0" height="40.0" fill="none" stroke="#64748b" stroke-width="1"/><rect x="0.0" y="200.0" width="40.0" height="40.0" fill="none" stroke="#64748b" stroke-width="1"/><rect x="0.0" y="160.0" width="40.0" height="40.0" fill="none" stroke="#64748b" stroke-width="1"/><rect x="40.0" y="200.0" width="40.0" height="40.0" fill="none" stroke="#64748b" stroke-width="1"/><rect x="40.0" y="160.0" width="40.0" height="40.0" fill="none" stroke="#64748b" stroke-width="1"/><rect x="80.0" y="280.0" width="40.0" height="40.0" fill="none" stroke="#64748b" stroke-width="1"/><rect x="80.0" y="240.0" width="40.0" height="40.0" fill="none" stroke="#64748b" stroke-width="1"/><rect x="120.0" y="280.0" width="40.0" height="40.0" fill="none" stroke="#64748b" stroke-width="1"/><rect x="120.0" y="240.0" width="40.0" height="40.0" fill="none" stroke="#64748b" stroke-width="1"/><rect x="80.0" y="200.0" width="40.0" height="40.0" fill="none" stroke="#64748b" stroke-width="1"/><rect x="80.0" y="160.0" width="40.0" height="40.0" fill="none" stroke="#64748b" stroke-width="1"/><rect x="120.0" y="200.0" width="40.0" height="40.0" fill="none" stroke="#64748b" stroke-width="1"/><rect x="120.0" y="160.0" width="40.0" height="40.0" fill="none" stroke="#64748b" stroke-width="1"/><rect x="0.0" y="120.0" width="40.0" height="40.0" fill="none" stroke="#64748b" stroke-width="1"/><rect x="0.0" y="80.0" width="40.0" height="40.0" fill="none" stroke="#64748b" stroke-width="1"/><rect x="40.0" y="120.0" width="40.0" height="40.0" fill="none" stroke="#64748b" stroke-width="1"/><rect x="40.0" y="80.0" width="40.0" height="40.0" fill="none" stroke="#64748b" stroke-width="1"/><rect x="0.0" y="40.0" width="40.0" height="40.0" fill="none" stroke="#64748b" stroke-width="1"/><rect x="0.0" y="0.0" width="40.0" height="40.0" fill="none" stroke="#64748b" stroke-width="1"/><rect x="40.0" y="40.0" width="40.0" height="40.0" fill="none" stroke="#64748b" stroke-width="1"/><rect x="40.0" y="0.0" width="40.0" height="40.0" fill="none" stroke="#64748b" stroke-width="1"/><rect x="80.0" y="120.0" width="40.0" height="40.0" fill="none" stroke="#64748b" stroke-width="1"/><rect x="80.0" y="80.0" width="40.0" height="40.0" fill="none" stroke="#64748b" stroke-width="1"/><rect x="120.0" y="120.0" width="40.0" height="40.0" fill="none" stroke="#64748b" stroke-width="1"/><rect x="120.0" y="80.0" width="40.0" height="40.0" fill="none" stroke="#64748b" stroke-width="1"/><rect x="80.0" y="40.0" width="40.0" height="40.0" fill="none" stroke="#64748b" stroke-width="1"/><rect x="80.0" y="0.0" width="40.0" height="40.0" fill="none" stroke="#64748b" stroke-width="1"/><rect x="120.0" y="40.0" width="40.0" height="40.0" fill="none" stroke="#64748b" stroke-width="1"/><rect x="120.0" y="0.0" width="40.0" height="40.0" fill="none" stroke="#64748b" stroke-width="1"/><rect x="160.0" y="280.0" width="40.0" height="40.0" fill="none" stroke="#64748b" stroke-width="1"/><rect x="160.0" y="240.0" width="40.0" height="40.0" fill="none" stroke="#64748b" stroke-width="1"/><rect x="200.0" y="280.0" width="40.0" height="40.0" fill="none" stroke="#64748b" stroke-width="1"/><rect x="200.0" y="240.0" width="40.0" height="40.0" fill="none" stroke="#64748b" stroke-width="1"/><rect x="160.0" y="200.0" width="40.0" height="40.0" fill="none" stroke="#64748b" stroke-width="1"/><rect x="160.0" y="160.0" width="40.0" height="40.0" fill="none" stroke="#64748b" stroke-width="1"/><rect x="200.0" y="200.0" width="40.0" height="40.0" fill="none" stroke="#64748b" stroke-width="1"/><rect x="200.0" y="160.0" width="40.0" height="40.0" fill="none" stroke="#64748b" stroke-width="1"/><rect x="240.0" y="280.0" width="40.0" height="40.0" fill="none" stroke="#64748b" stroke-width="1"/><rect x="240.0" y="240.0" width="40.0" height="40.0" fill="none" stroke="#64748b" stroke-width="1"/><rect x="280.0" y="280.0" width="40.0" height="40.0" fill="none" stroke="#64748b" stroke-width="1"/><rect x="280.0" y="240.0" width="40.0" height="40.0" fill="none" stroke="#64748b" stroke-width="1"/><rect x="240.0" y="200.0" width="40.0" height="40.0" fill="none" stroke="#64748b" stroke-width="1"/><rect x="240.0" y="160.0" width="40.0" height="40.0" fill="none" stroke="#64748b" stroke-width="1"/><rect x="280.0" y="200.0" width="40.0" height="40.0" fill="none" stroke="#64748b" stroke-width="1"/><rect x="280.0" y="160.0" width="40.0" height="40.0" fill="none" stroke="#64748b" stroke-width="1"/><rect x="160.0" y="120.0" width="40.0" height="40.0" fill="none" stroke="#64748b" stroke-width="1"/><rect x="160.0" y="80.0" width="40.0" height="40.0" fill="none" stroke="#64748b" stroke-width="1"/><rect x="200.0" y="120.0" width="40.0" height="40.0" fill="none" stroke="#64748b" stroke-width="1"/><rect x="200.0" y="80.0" width="40.0" height="40.0" fill="none" stroke="#64748b" stroke-width="1"/><rect x="160.0" y="40.0" width="40.0" height="40.0" fill="none" stroke="#64748b" stroke-width="1"/><rect x="160.0" y="0.0" width="40.0" height="40.0" fill="none" stroke="#64748b" stroke-width="1"/><rect x="200.0" y="40.0" width="40.0" height="40.0" fill="none" stroke="#64748b" stroke-width="1"/><rect x="200.0" y="0.0" width="40.0" height="40.0" fill="none" stroke="#64748b" stroke-width="1"/><rect x="240.0" y="120.0" width="40.0" height="40.0" fill="none" stroke="#64748b" stroke-width="1"/><rect x="240.0" y="80.0" width="40.0" height="40.0" fill="none" stroke="#64748b" stroke-width="1"/><rect x="280.0" y="120.0" width="40.0" height="40.0" fill="none" stroke="#64748b" stroke-width="1"/><rect x="280.0" y="80.0" width="40.0" height="40.0" fill="none" stroke="#64748b" stroke-width="1"/><rect x="240.0" y="40.0" width="40.0" height="40.0" fill="none" stroke="#64748b" stroke-width="1"/><rect x="240.0" y="0.0" width="40.0" height="40.0" fill="none" stroke="#64748b" stroke-width="1"/><rect x="280.0" y="40.0" width="40.0" height="40.0" fill="none" stroke="#64748b" stroke-width="1"/><rect x="280.0" y="0.0" width="40.0" height="40.0" fill="none" stroke="#64748b" stroke-width="1"/><rect x="320.0" y="600.0" width="40.0" height="40.0" fill="none" stroke="#64748b" stroke-width="1"/><rect x="320.0" y="560.0" width="40.0" height="40.0" fill="none" stroke="#64748b" stroke-width="1"/><rect x="360.0" y="600.0" width="40.0" height="40.0" fill="none" stroke="#64748b" stroke-width="1"/><rect x="360.0" y="560.0" width="40.0" height="40.0" fill="none" stroke="#64748b" stroke-width="1"/><rect x="320.0" y="520.0" width="40.0" height="40.0" fill="none" stroke="#64748b" stroke-width="1"/><rect x="320.0" y="480.0" width="40.0" height="40.0" fill="none" stroke="#64748b" stroke-width="1"/><rect x="360.0" y="520.0" width="40.0" height="40.0" fill="none" stroke="#64748b" stroke-width="1"/><rect x="360.0" y="480.0" width="40.0" height="40.0" fill="none" stroke="#64748b" stroke-width="1"/><rect x="400.0" y="600.0" width="40.0" height="40.0" fill="none" stroke="#64748b" stroke-width="1"/><rect x="400.0" y="560.0" width="40.0" height="40.0" fill="none" stroke="#64748b" stroke-width="1"/><rect x="440.0" y="600.0" width="40.0" height="40.0" fill="none" stroke="#64748b" stroke-width="1"/><rect x="440.0" y="560.0" width="40.0" height="40.0" fill="none" stroke="#64748b" stroke-width="1"/><rect x="400.0" y="520.0" width="40.0" height="40.0" fill="none" stroke="#64748b" stroke-width="1"/><rect x="400.0" y="480.0" width="40.0" height="40.0" fill="none" stroke="#64748b" stroke-width="1"/><rect x="440.0" y="520.0" width="40.0" height="40.0" fill="none" stroke="#64748b" stroke-width="1"/><rect x="440.0" y="480.0" width="40.0" height="40.0" fill="none" stroke="#64748b" stroke-width="1"/><rect x="320.0" y="440.0" width="40.0" height="40.0" fill="none" stroke="#64748b" stroke-width="1"/><rect x="320.0" y="400.0" width="40.0" height="40.0" fill="none" stroke="#64748b" stroke-width="1"/><rect x="360.0" y="440.0" width="40.0" height="40.0" fill="none" stroke="#64748b" stroke-width="1"/><rect x="360.0" y="400.0" width="40.0" height="40.0" fill="none" stroke="#64748b" stroke-width="1"/><rect x="320.0" y="360.0" width="40.0" height="40.0" fill="none" stroke="#64748b" stroke-width="1"/><rect x="320.0" y="320.0" width="40.0" height="40.0" fill="none" stroke="#64748b" stroke-width="1"/><rect x="360.0" y="360.0" width="40.0" height="40.0" fill="none" stroke="#64748b" stroke-width="1"/><rect x="360.0" y="320.0" width="40.0" height="40.0" fill="none" stroke="#64748b" stroke-width="1"/><rect x="400.0" y="440.0" width="40.0" height="40.0" fill="none" stroke="#64748b" stroke-width="1"/><rect x="400.0" y="400.0" width="40.0" height="40.0" fill="none" stroke="#64748b" stroke-width="1"/><rect x="440.0" y="440.0" width="40.0" height="40.0" fill="none" stroke="#64748b" stroke-width="1"/><rect x="440.0" y="400.0" width="40.0" height="40.0" fill="none" stroke="#64748b" stroke-width="1"/><rect x="400.0" y="360.0" width="40.0" height="40.0" fill="none" stroke="#64748b" stroke-width="1"/><rect x="400.0" y="320.0" width="40.0" height="40.0" fill="none" stroke="#64748b" stroke-width="1"/><rect x="440.0" y="360.0" width="40.0" height="40.0" fill="none" stroke="#64748b" stroke-width="1"/><rect x="440.0" y="320.0" width="40.0" height="40.0" fill="none" stroke="#64748b" stroke-width="1"/><rect x="480.0" y="600.0" width="40.0" height="40.0" fill="none" stroke="#64748b" stroke-width="1"/><rect x="480.0" y="560.0" width="40.0" height="40.0" fill="none" stroke="#64748b" stroke-width="1"/><rect x="520.0" y="600.0" width="40.0" height="40.0" fill="none" stroke="#64748b" stroke-width="1"/><rect x="520.0" y="560.0" width="40.0" height="40.0" fill="none" stroke="#64748b" stroke-width="1"/><rect x="480.0" y="520.0" width="40.0" height="40.0" fill="none" stroke="#64748b" stroke-width="1"/><rect x="480.0" y="480.0" width="40.0" height="40.0" fill="none" stroke="#64748b" stroke-width="1"/><rect x="520.0" y="520.0" width="40.0" height="40.0" fill="none" stroke="#64748b" stroke-width="1"/><rect x="520.0" y="480.0" width="40.0" height="40.0" fill="none" stroke="#64748b" stroke-width="1"/><rect x="560.0" y="600.0" width="40.0" height="40.0" fill="none" stroke="#64748b" stroke-width="1"/><rect x="560.0" y="560.0" width="40.0" height="40.0" fill="none" stroke="#64748b" stroke-width="1"/><rect x="600.0" y="600.0" width="40.0" height="40.0" fill="none" stroke="#64748b" stroke-width="1"/><rect x="600.0" y="560.0" width="40.0" height="40.0" fill="none" stroke="#64748b" stroke-width="1"/><rect x="560.0" y="520.0" width="40.0" height="40.0" fill="none" stroke="#64748b" stroke-width="1"/><rect x="560.0" y="480.0" width="40.0" height="40.0" fill="none" stroke="#64748b" stroke-width="1"/><rect x="600.0" y="520.0" width="40.0" height="40.0" fill="none" stroke="#64748b" stroke-width="1"/><rect x="600.0" y="480.0" width="40.0" height="40.0" fill="none" stroke="#64748b" stroke-width="1"/><rect x="480.0" y="440.0" width="40.0" height="40.0" fill="none" stroke="#64748b" stroke-width="1"/><rect x="480.0" y="400.0" width="40.0" height="40.0" fill="none" stroke="#64748b" stroke-width="1"/><rect x="520.0" y="440.0" width="40.0" height="40.0" fill="none" stroke="#64748b" stroke-width="1"/><rect x="520.0" y="400.0" width="40.0" height="40.0" fill="none" stroke="#64748b" stroke-width="1"/><rect x="480.0" y="360.0" width="40.0" height="40.0" fill="none" stroke="#64748b" stroke-width="1"/><rect x="480.0" y="320.0" width="40.0" height="40.0" fill="none" stroke="#64748b" stroke-width="1"/><rect x="520.0" y="360.0" width="40.0" height="40.0" fill="none" stroke="#64748b" stroke-width="1"/><rect x="520.0" y="320.0" width="40.0" height="40.0" fill="none" stroke="#64748b" stroke-width="1"/><rect x="560.0" y="440.0" width="40.0" height="40.0" fill="none" stroke="#64748b" stroke-width="1"/><rect x="560.0" y="400.0" width="40.0" height="40.0" fill="none" stroke="#64748b" stroke-width="1"/><rect x="600.0" y="440.0" width="40.0" height="40.0" fill="none" stroke="#64748b" stroke-width="1"/><rect x="600.0" y="400.0" width="40.0" height="40.0" fill="none" stroke="#64748b" stroke-width="1"/><rect x="560.0" y="360.0" width="40.0" height="40.0" fill="none" stroke="#64748b" stroke-width="1"/><rect x="560.0" y="320.0" width="40.0" height="40.0" fill="none" stroke="#64748b" stroke-width="1"/><rect x="600.0" y="360.0" width="40.0" height="40.0" fill="none" stroke="#64748b" stroke-width="1"/><rect x="600.0" y="320.0" width="40.0" height="40.0" fill="none" stroke="#64748b" stroke-width="1"/><rect x="320.0" y="280.0" width="40.0" height="40.0" fill="none" stroke="#64748b" stroke-width="1"/><rect x="320.0" y="240.0" width="40.0" height="40.0" fill="none" stroke="#64748b" stroke-width="1"/><rect x="360.0" y="280.0" width="40.0" height="40.0" fill="none" stroke="#64748b" stroke-width="1"/><rect x="360.0" y="240.0" width="40.0" height="40.0" fill="none" stroke="#64748b" stroke-width="1"/><rect x="320.0" y="200.0" width="40.0" height="40.0" fill="none" stroke="#64748b" stroke-width="1"/><rect x="320.0" y="160.0" width="40.0" height="40.0" fill="none" stroke="#64748b" stroke-width="1"/><rect x="360.0" y="200.0" width="40.0" height="40.0" fill="none" stroke="#64748b" stroke-width="1"/><rect x="360.0" y="160.0" width="40.0" height="40.0" fill="none" stroke="#64748b" stroke-width="1"/><rect x="400.0" y="280.0" width="40.0" height="40.0" fill="none" stroke="#64748b" stroke-width="1"/><rect x="400.0" y="240.0" width="40.0" height="40.0" fill="none" stroke="#64748b" stroke-width="1"/><rect x="440.0" y="280.0" width="40.0" height="40.0" fill="none" stroke="#64748b" stroke-width="1"/><rect x="440.0" y="240.0" width="40.0" height="40.0" fill="none" stroke="#64748b" stroke-width="1"/><rect x="400.0" y="200.0" width="40.0" height="40.0" fill="none" stroke="#64748b" stroke-width="1"/><rect x="400.0" y="160.0" width="40.0" height="40.0" fill="none" stroke="#64748b" stroke-width="1"/><rect x="440.0" y="200.0" width="40.0" height="40.0" fill="none" stroke="#64748b" stroke-width="1"/><rect x="440.0" y="160.0" width="40.0" height="40.0" fill="none" stroke="#64748b" stroke-width="1"/><rect x="320.0" y="120.0" width="40.0" height="40.0" fill="none" stroke="#64748b" stroke-width="1"/><rect x="320.0" y="80.0" width="40.0" height="40.0" fill="none" stroke="#64748b" stroke-width="1"/><rect x="360.0" y="120.0" width="40.0" height="40.0" fill="none" stroke="#64748b" stroke-width="1"/><rect x="360.0" y="80.0" width="40.0" height="40.0" fill="none" stroke="#64748b" stroke-width="1"/><rect x="320.0" y="40.0" width="40.0" height="40.0" fill="none" stroke="#64748b" stroke-width="1"/><rect x="320.0" y="0.0" width="40.0" height="40.0" fill="none" stroke="#64748b" stroke-width="1"/><rect x="360.0" y="40.0" width="40.0" height="40.0" fill="none" stroke="#64748b" stroke-width="1"/><rect x="360.0" y="0.0" width="40.0" height="40.0" fill="none" stroke="#64748b" stroke-width="1"/><rect x="400.0" y="120.0" width="40.0" height="40.0" fill="none" stroke="#64748b" stroke-width="1"/><rect x="400.0" y="80.0" width="40.0" height="40.0" fill="none" stroke="#64748b" stroke-width="1"/><rect x="440.0" y="120.0" width="40.0" height="40.0" fill="none" stroke="#64748b" stroke-width="1"/><rect x="440.0" y="80.0" width="40.0" height="40.0" fill="none" stroke="#64748b" stroke-width="1"/><rect x="400.0" y="40.0" width="40.0" height="40.0" fill="none" stroke="#64748b" stroke-width="1"/><rect x="400.0" y="0.0" width="40.0" height="40.0" fill="none" stroke="#64748b" stroke-width="1"/><rect x="440.0" y="40.0" width="40.0" height="40.0" fill="none" stroke="#64748b" stroke-width="1"/><rect x="440.0" y="0.0" width="40.0" height="40.0" fill="none" stroke="#64748b" stroke-width="1"/><rect x="480.0" y="280.0" width="40.0" height="40.0" fill="none" stroke="#64748b" stroke-width="1"/><rect x="480.0" y="240.0" width="40.0" height="40.0" fill="none" stroke="#64748b" stroke-width="1"/><rect x="520.0" y="280.0" width="40.0" height="40.0" fill="none" stroke="#64748b" stroke-width="1"/><rect x="520.0" y="240.0" width="40.0" height="40.0" fill="none" stroke="#64748b" stroke-width="1"/><rect x="480.0" y="200.0" width="40.0" height="40.0" fill="none" stroke="#64748b" stroke-width="1"/><rect x="480.0" y="160.0" width="40.0" height="40.0" fill="none" stroke="#64748b" stroke-width="1"/><rect x="520.0" y="200.0" width="40.0" height="40.0" fill="none" stroke="#64748b" stroke-width="1"/><rect x="520.0" y="160.0" width="40.0" height="40.0" fill="none" stroke="#64748b" stroke-width="1"/><rect x="560.0" y="280.0" width="40.0" height="40.0" fill="none" stroke="#64748b" stroke-width="1"/><rect x="560.0" y="240.0" width="40.0" height="40.0" fill="none" stroke="#64748b" stroke-width="1"/><rect x="600.0" y="280.0" width="40.0" height="40.0" fill="none" stroke="#64748b" stroke-width="1"/><rect x="600.0" y="240.0" width="40.0" height="40.0" fill="none" stroke="#64748b" stroke-width="1"/><rect x="560.0" y="200.0" width="40.0" height="40.0" fill="none" stroke="#64748b" stroke-width="1"/><rect x="560.0" y="160.0" width="40.0" height="40.0" fill="none" stroke="#64748b" stroke-width="1"/><rect x="600.0" y="200.0" width="40.0" height="40.0" fill="none" stroke="#64748b" stroke-width="1"/><rect x="600.0" y="160.0" width="40.0" height="40.0" fill="none" stroke="#64748b" stroke-width="1"/><rect x="480.0" y="120.0" width="40.0" height="40.0" fill="none" stroke="#64748b" stroke-width="1"/><rect x="480.0" y="80.0" width="40.0" height="40.0" fill="none" stroke="#64748b" stroke-width="1"/><rect x="520.0" y="120.0" width="40.0" height="40.0" fill="none" stroke="#64748b" stroke-width="1"/><rect x="520.0" y="80.0" width="40.0" height="40.0" fill="none" stroke="#64748b" stroke-width="1"/><rect x="480.0" y="40.0" width="40.0" height="40.0" fill="none" stroke="#64748b" stroke-width="1"/><rect x="480.0" y="0.0" width="40.0" height="40.0" fill="none" stroke="#64748b" stroke-width="1"/><rect x="520.0" y="40.0" width="40.0" height="40.0" fill="none" stroke="#64748b" stroke-width="1"/><rect x="520.0" y="0.0" width="40.0" height="40.0" fill="none" stroke="#64748b" stroke-width="1"/><rect x="560.0" y="120.0" width="40.0" height="40.0" fill="none" stroke="#64748b" stroke-width="1"/><rect x="560.0" y="80.0" width="40.0" height="40.0" fill="none" stroke="#64748b" stroke-width="1"/><rect x="600.0" y="120.0" width="40.0" height="40.0" fill="none" stroke="#64748b" stroke-width="1"/><rect x="600.0" y="80.0" width="40.0" height="40.0" fill="none" stroke="#64748b" stroke-width="1"/><rect x="560.0" y="40.0" width="40.0" height="40.0" fill="none" stroke="#64748b" stroke-width="1"/><rect x="560.0" y="0.0" width="40.0" height="40.0" fill="none" stroke="#64748b" stroke-width="1"/><rect x="600.0" y="40.0" width="40.0" height="40.0" fill="none" stroke="#64748b" stroke-width="1"/><rect x="600.0" y="0.0" width="40.0" height="40.0" fill="none" stroke="#64748b" stroke-width="1"/><circle cx="0.0" cy="640.0" r="3.4" fill="#eab308"/><circle cx="0.0" cy="0.0" r="3.4" fill="#eab308"/><circle cx="640.0" cy="640.0" r="3.4" fill="#eab308"/><circle cx="640.0" cy="0.0" r="3.4" fill="#eab308"/><circle cx="320.0" cy="640.0" r="3.4" fill="#eab308"/><circle cx="320.0" cy="0.0" r="3.4" fill="#eab308"/><circle cx="0.0" cy="320.0" r="3.4" fill="#eab308"/><circle cx="320.0" cy="320.0" r="3.4" fill="#eab308"/><circle cx="640.0" cy="320.0" r="3.4" fill="#eab308"/><circle cx="160.0" cy="640.0" r="3.4" fill="#eab308"/><circle cx="160.0" cy="320.0" r="3.4" fill="#eab308"/><circle cx="160.0" cy="0.0" r="3.4" fill="#eab308"/><circle cx="480.0" cy="640.0" r="3.4" fill="#eab308"/><circle cx="480.0" cy="320.0" r="3.4" fill="#eab308"/><circle cx="480.0" cy="0.0" r="3.4" fill="#eab308"/><circle cx="0.0" cy="480.0" r="3.4" fill="#eab308"/><circle cx="160.0" cy="480.0" r="3.4" fill="#eab308"/><circle cx="320.0" cy="480.0" r="3.4" fill="#eab308"/><circle cx="0.0" cy="160.0" r="3.4" fill="#eab308"/><circle cx="160.0" cy="160.0" r="3.4" fill="#eab308"/><circle cx="320.0" cy="160.0" r="3.4" fill="#eab308"/><circle cx="480.0" cy="480.0" r="3.4" fill="#eab308"/><circle cx="640.0" cy="480.0" r="3.4" fill="#eab308"/><circle cx="480.0" cy="160.0" r="3.4" fill="#eab308"/><circle cx="640.0" cy="160.0" r="3.4" fill="#eab308"/><circle cx="80.0" cy="640.0" r="3.4" fill="#eab308"/><circle cx="80.0" cy="480.0" r="3.4" fill="#eab308"/><circle cx="80.0" cy="320.0" r="3.4" fill="#eab308"/><circle cx="240.0" cy="640.0" r="3.4" fill="#eab308"/><circle cx="240.0" cy="480.0" r="3.4" fill="#eab308"/><circle cx="240.0" cy="320.0" r="3.4" fill="#eab308"/><circle cx="80.0" cy="160.0" r="3.4" fill="#eab308"/><circle cx="80.0" cy="0.0" r="3.4" fill="#eab308"/><circle cx="240.0" cy="160.0" r="3.4" fill="#eab308"/><circle cx="240.0" cy="0.0" r="3.4" fill="#eab308"/><circle cx="400.0" cy="640.0" r="3.4" fill="#eab308"/><circle cx="400.0" cy="480.0" r="3.4" fill="#eab308"/><circle cx="400.0" cy="320.0" r="3.4" fill="#eab308"/><circle cx="560.0" cy="640.0" r="3.4" fill="#eab308"/><circle cx="560.0" cy="480.0" r="3.4" fill="#eab308"/><circle cx="560.0" cy="320.0" r="3.4" fill="#eab308"/><circle cx="400.0" cy="160.0" r="3.4" fill="#eab308"/><circle cx="400.0" cy="0.0" r="3.4" fill="#eab308"/><circle cx="560.0" cy="160.0" r="3.4" fill="#eab308"/><circle cx="560.0" cy="0.0" r="3.4" fill="#eab308"/><circle cx="0.0" cy="560.0" r="3.4" fill="#eab308"/><circle cx="80.0" cy="560.0" r="3.4" fill="#eab308"/><circle cx="160.0" cy="560.0" r="3.4" fill="#eab308"/><circle cx="0.0" cy="400.0" r="3.4" fill="#eab308"/><circle cx="80.0" cy="400.0" r="3.4" fill="#eab308"/><circle cx="160.0" cy="400.0" r="3.4" fill="#eab308"/><circle cx="240.0" cy="560.0" r="3.4" fill="#eab308"/><circle cx="320.0" cy="560.0" r="3.4" fill="#eab308"/><circle cx="240.0" cy="400.0" r="3.4" fill="#eab308"/><circle cx="320.0" cy="400.0" r="3.4" fill="#eab308"/><circle cx="0.0" cy="240.0" r="3.4" fill="#eab308"/><circle cx="80.0" cy="240.0" r="3.4" fill="#eab308"/><circle cx="160.0" cy="240.0" r="3.4" fill="#eab308"/><circle cx="0.0" cy="80.0" r="3.4" fill="#eab308"/><circle cx="80.0" cy="80.0" r="3.4" fill="#eab308"/><circle cx="160.0" cy="80.0" r="3.4" fill="#eab308"/><circle cx="240.0" cy="240.0" r="3.4" fill="#eab308"/><circle cx="320.0" cy="240.0" r="3.4" fill="#eab308"/><circle cx="240.0" cy="80.0" r="3.4" fill="#eab308"/><circle cx="320.0" cy="80.0" r="3.4" fill="#eab308"/><circle cx="400.0" cy="560.0" r="3.4" fill="#eab308"/><circle cx="480.0" cy="560.0" r="3.4" fill="#eab308"/><circle cx="400.0" cy="400.0" r="3.4" fill="#eab308"/><circle cx="480.0" cy="400.0" r="3.4" fill="#eab308"/><circle cx="560.0" cy="560.0" r="3.4" fill="#eab308"/><circle cx="640.0" cy="560.0" r="3.4" fill="#eab308"/><circle cx="560.0" cy="400.0" r="3.4" fill="#eab308"/><circle cx="640.0" cy="400.0" r="3.4" fill="#eab308"/><circle cx="400.0" cy="240.0" r="3.4" fill="#eab308"/><circle cx="480.0" cy="240.0" r="3.4" fill="#eab308"/><circle cx="400.0" cy="80.0" r="3.4" fill="#eab308"/><circle cx="480.0" cy="80.0" r="3.4" fill="#eab308"/><circle cx="560.0" cy="240.0" r="3.4" fill="#eab308"/><circle cx="640.0" cy="240.0" r="3.4" fill="#eab308"/><circle cx="560.0" cy="80.0" r="3.4" fill="#eab308"/><circle cx="640.0" cy="80.0" r="3.4" fill="#eab308"/><circle cx="40.0" cy="640.0" r="3.4" fill="#eab308"/><circle cx="40.0" cy="560.0" r="3.4" fill="#eab308"/><circle cx="40.0" cy="480.0" r="3.4" fill="#eab308"/><circle cx="120.0" cy="640.0" r="3.4" fill="#eab308"/><circle cx="120.0" cy="560.0" r="3.4" fill="#eab308"/><circle cx="120.0" cy="480.0" r="3.4" fill="#eab308"/><circle cx="40.0" cy="400.0" r="3.4" fill="#eab308"/><circle cx="40.0" cy="320.0" r="3.4" fill="#eab308"/><circle cx="120.0" cy="400.0" r="3.4" fill="#eab308"/><circle cx="120.0" cy="320.0" r="3.4" fill="#eab308"/><circle cx="200.0" cy="640.0" r="3.4" fill="#eab308"/><circle cx="200.0" cy="560.0" r="3.4" fill="#eab308"/><circle cx="200.0" cy="480.0" r="3.4" fill="#eab308"/><circle cx="280.0" cy="640.0" r="3.4" fill="#eab308"/><circle cx="280.0" cy="560.0" r="3.4" fill="#eab308"/><circle cx="280.0" cy="480.0" r="3.4" fill="#eab308"/><circle cx="200.0" cy="400.0" r="3.4" fill="#eab308"/><circle cx="200.0" cy="320.0" r="3.4" fill="#eab308"/><circle cx="280.0" cy="400.0" r="3.4" fill="#eab308"/><circle cx="280.0" cy="320.0" r="3.4" fill="#eab308"/><circle cx="40.0" cy="240.0" r="3.4" fill="#eab308"/><circle cx="40.0" cy="160.0" r="3.4" fill="#eab308"/><circle cx="120.0" cy="240.0" r="3.4" fill="#eab308"/><circle cx="120.0" cy="160.0" r="3.4" fill="#eab308"/><circle cx="40.0" cy="80.0" r="3.4" fill="#eab308"/><circle cx="40.0" cy="0.0" r="3.4" fill="#eab308"/><circle cx="120.0" cy="80.0" r="3.4" fill="#eab308"/><circle cx="120.0" cy="0.0" r="3.4" fill="#eab308"/><circle cx="200.0" cy="240.0" r="3.4" fill="#eab308"/><circle cx="200.0" cy="160.0" r="3.4" fill="#eab308"/><circle cx="280.0" cy="240.0" r="3.4" fill="#eab308"/><circle cx="280.0" cy="160.0" r="3.4" fill="#eab308"/><circle cx="200.0" cy="80.0" r="3.4" fill="#eab308"/><circle cx="200.0" cy="0.0" r="3.4" fill="#eab308"/><circle cx="280.0" cy="80.0" r="3.4" fill="#eab308"/><circle cx="280.0" cy="0.0" r="3.4" fill="#eab308"/><circle cx="360.0" cy="640.0" r="3.4" fill="#eab308"/><circle cx="360.0" cy="560.0" r="3.4" fill="#eab308"/><circle cx="360.0" cy="480.0" r="3.4" fill="#eab308"/><circle cx="440.0" cy="640.0" r="3.4" fill="#eab308"/><circle cx="440.0" cy="560.0" r="3.4" fill="#eab308"/><circle cx="440.0" cy="480.0" r="3.4" fill="#eab308"/><circle cx="360.0" cy="400.0" r="3.4" fill="#eab308"/><circle cx="360.0" cy="320.0" r="3.4" fill="#eab308"/><circle cx="440.0" cy="400.0" r="3.4" fill="#eab308"/><circle cx="440.0" cy="320.0" r="3.4" fill="#eab308"/><circle cx="520.0" cy="640.0" r="3.4" fill="#eab308"/><circle cx="520.0" cy="560.0" r="3.4" fill="#eab308"/><circle cx="520.0" cy="480.0" r="3.4" fill="#eab308"/><circle cx="600.0" cy="640.0" r="3.4" fill="#eab308"/><circle cx="600.0" cy="560.0" r="3.4" fill="#eab308"/><circle cx="600.0" cy="480.0" r="3.4" fill="#eab308"/><circle cx="520.0" cy="400.0" r="3.4" fill="#eab308"/><circle cx="520.0" cy="320.0" r="3.4" fill="#eab308"/><circle cx="600.0" cy="400.0" r="3.4" fill="#eab308"/><circle cx="600.0" cy="320.0" r="3.4" fill="#eab308"/><circle cx="360.0" cy="240.0" r="3.4" fill="#eab308"/><circle cx="360.0" cy="160.0" r="3.4" fill="#eab308"/><circle cx="440.0" cy="240.0" r="3.4" fill="#eab308"/><circle cx="440.0" cy="160.0" r="3.4" fill="#eab308"/><circle cx="360.0" cy="80.0" r="3.4" fill="#eab308"/><circle cx="360.0" cy="0.0" r="3.4" fill="#eab308"/><circle cx="440.0" cy="80.0" r="3.4" fill="#eab308"/><circle cx="440.0" cy="0.0" r="3.4" fill="#eab308"/><circle cx="520.0" cy="240.0" r="3.4" fill="#eab308"/><circle cx="520.0" cy="160.0" r="3.4" fill="#eab308"/><circle cx="600.0" cy="240.0" r="3.4" fill="#eab308"/><circle cx="600.0" cy="160.0" r="3.4" fill="#eab308"/><circle cx="520.0" cy="80.0" r="3.4" fill="#eab308"/><circle cx="520.0" cy="0.0" r="3.4" fill="#eab308"/><circle cx="600.0" cy="80.0" r="3.4" fill="#eab308"/><circle cx="600.0" cy="0.0" r="3.4" fill="#eab308"/><circle cx="0.0" cy="600.0" r="3.4" fill="#eab308"/><circle cx="40.0" cy="600.0" r="3.4" fill="#eab308"/><circle cx="80.0" cy="600.0" r="3.4" fill="#eab308"/><circle cx="0.0" cy="520.0" r="3.4" fill="#eab308"/><circle cx="40.0" cy="520.0" r="3.4" fill="#eab308"/><circle cx="80.0" cy="520.0" r="3.4" fill="#eab308"/><circle cx="120.0" cy="600.0" r="3.4" fill="#eab308"/><circle cx="160.0" cy="600.0" r="3.4" fill="#eab308"/><circle cx="120.0" cy="520.0" r="3.4" fill="#eab308"/><circle cx="160.0" cy="520.0" r="3.4" fill="#eab308"/><circle cx="0.0" cy="440.0" r="3.4" fill="#eab308"/><circle cx="40.0" cy="440.0" r="3.4" fill="#eab308"/><circle cx="80.0" cy="440.0" r="3.4" fill="#eab308"/><circle cx="0.0" cy="360.0" r="3.4" fill="#eab308"/><circle cx="40.0" cy="360.0" r="3.4" fill="#eab308"/><circle cx="80.0" cy="360.0" r="3.4" fill="#eab308"/><circle cx="120.0" cy="440.0" r="3.4" fill="#eab308"/><circle cx="160.0" cy="440.0" r="3.4" fill="#eab308"/><circle cx="120.0" cy="360.0" r="3.4" fill="#eab308"/><circle cx="160.0" cy="360.0" r="3.4" fill="#eab308"/><circle cx="200.0" cy="600.0" r="3.4" fill="#eab308"/><circle cx="240.0" cy="600.0" r="3.4" fill="#eab308"/><circle cx="200.0" cy="520.0" r="3.4" fill="#eab308"/><circle cx="240.0" cy="520.0" r="3.4" fill="#eab308"/><circle cx="280.0" cy="600.0" r="3.4" fill="#eab308"/><circle cx="320.0" cy="600.0" r="3.4" fill="#eab308"/><circle cx="280.0" cy="520.0" r="3.4" fill="#eab308"/><circle cx="320.0" cy="520.0" r="3.4" fill="#eab308"/><circle cx="200.0" cy="440.0" r="3.4" fill="#eab308"/><circle cx="240.0" cy="440.0" r="3.4" fill="#eab308"/><circle cx="200.0" cy="360.0" r="3.4" fill="#eab308"/><circle cx="240.0" cy="360.0" r="3.4" fill="#eab308"/><circle cx="280.0" cy="440.0" r="3.4" fill="#eab308"/><circle cx="320.0" cy="440.0" r="3.4" fill="#eab308"/><circle cx="280.0" cy="360.0" r="3.4" fill="#eab308"/><circle cx="320.0" cy="360.0" r="3.4" fill="#eab308"/><circle cx="0.0" cy="280.0" r="3.4" fill="#eab308"/><circle cx="40.0" cy="280.0" r="3.4" fill="#eab308"/><circle cx="80.0" cy="280.0" r="3.4" fill="#eab308"/><circle cx="0.0" cy="200.0" r="3.4" fill="#eab308"/><circle cx="40.0" cy="200.0" r="3.4" fill="#eab308"/><circle cx="80.0" cy="200.0" r="3.4" fill="#eab308"/><circle cx="120.0" cy="280.0" r="3.4" fill="#eab308"/><circle cx="160.0" cy="280.0" r="3.4" fill="#eab308"/><circle cx="120.0" cy="200.0" r="3.4" fill="#eab308"/><circle cx="160.0" cy="200.0" r="3.4" fill="#eab308"/><circle cx="0.0" cy="120.0" r="3.4" fill="#eab308"/><circle cx="40.0" cy="120.0" r="3.4" fill="#eab308"/><circle cx="80.0" cy="120.0" r="3.4" fill="#eab308"/><circle cx="0.0" cy="40.0" r="3.4" fill="#eab308"/><circle cx="40.0" cy="40.0" r="3.4" fill="#eab308"/><circle cx="80.0" cy="40.0" r="3.4" fill="#eab308"/><circle cx="120.0" cy="120.0" r="3.4" fill="#eab308"/><circle cx="160.0" cy="120.0" r="3.4" fill="#eab308"/><circle cx="120.0" cy="40.0" r="3.4" fill="#eab308"/><circle cx="160.0" cy="40.0" r="3.4" fill="#eab308"/><circle cx="200.0" cy="280.0" r="3.4" fill="#eab308"/><circle cx="240.0" cy="280.0" r="3.4" fill="#eab308"/><circle cx="200.0" cy="200.0" r="3.4" fill="#eab308"/><circle cx="240.0" cy="200.0" r="3.4" fill="#eab308"/><circle cx="280.0" cy="280.0" r="3.4" fill="#eab308"/><circle cx="320.0" cy="280.0" r="3.4" fill="#eab308"/><circle cx="280.0" cy="200.0" r="3.4" fill="#eab308"/><circle cx="320.0" cy="200.0" r="3.4" fill="#eab308"/><circle cx="200.0" cy="120.0" r="3.4" fill="#eab308"/><circle cx="240.0" cy="120.0" r="3.4" fill="#eab308"/><circle cx="200.0" cy="40.0" r="3.4" fill="#eab308"/><circle cx="240.0" cy="40.0" r="3.4" fill="#eab308"/><circle cx="280.0" cy="120.0" r="3.4" fill="#eab308"/><circle cx="320.0" cy="120.0" r="3.4" fill="#eab308"/><circle cx="280.0" cy="40.0" r="3.4" fill="#eab308"/><circle cx="320.0" cy="40.0" r="3.4" fill="#eab308"/><circle cx="360.0" cy="600.0" r="3.4" fill="#eab308"/><circle cx="400.0" cy="600.0" r="3.4" fill="#eab308"/><circle cx="360.0" cy="520.0" r="3.4" fill="#eab308"/><circle cx="400.0" cy="520.0" r="3.4" fill="#eab308"/><circle cx="440.0" cy="600.0" r="3.4" fill="#eab308"/><circle cx="480.0" cy="600.0" r="3.4" fill="#eab308"/><circle cx="440.0" cy="520.0" r="3.4" fill="#eab308"/><circle cx="480.0" cy="520.0" r="3.4" fill="#eab308"/><circle cx="360.0" cy="440.0" r="3.4" fill="#eab308"/><circle cx="400.0" cy="440.0" r="3.4" fill="#eab308"/><circle cx="360.0" cy="360.0" r="3.4" fill="#eab308"/><circle cx="400.0" cy="360.0" r="3.4" fill="#eab308"/><circle cx="440.0" cy="440.0" r="3.4" fill="#eab308"/><circle cx="480.0" cy="440.0" r="3.4" fill="#eab308"/><circle cx="440.0" cy="360.0" r="3.4" fill="#eab308"/><circle cx="480.0" cy="360.0" r="3.4" fill="#eab308"/><circle cx="520.0" cy="600.0" r="3.4" fill="#eab308"/><circle cx="560.0" cy="600.0" r="3.4" fill="#eab308"/><circle cx="520.0" cy="520.0" r="3.4" fill="#eab308"/><circle cx="560.0" cy="520.0" r="3.4" fill="#eab308"/><circle cx="600.0" cy="600.0" r="3.4" fill="#eab308"/><circle cx="640.0" cy="600.0" r="3.4" fill="#eab308"/><circle cx="600.0" cy="520.0" r="3.4" fill="#eab308"/><circle cx="640.0" cy="520.0" r="3.4" fill="#eab308"/><circle cx="520.0" cy="440.0" r="3.4" fill="#eab308"/><circle cx="560.0" cy="440.0" r="3.4" fill="#eab308"/><circle cx="520.0" cy="360.0" r="3.4" fill="#eab308"/><circle cx="560.0" cy="360.0" r="3.4" fill="#eab308"/><circle cx="600.0" cy="440.0" r="3.4" fill="#eab308"/><circle cx="640.0" cy="440.0" r="3.4" fill="#eab308"/><circle cx="600.0" cy="360.0" r="3.4" fill="#eab308"/><circle cx="640.0" cy="360.0" r="3.4" fill="#eab308"/><circle cx="360.0" cy="280.0" r="3.4" fill="#eab308"/><circle cx="400.0" cy="280.0" r="3.4" fill="#eab308"/><circle cx="360.0" cy="200.0" r="3.4" fill="#eab308"/><circle cx="400.0" cy="200.0" r="3.4" fill="#eab308"/><circle cx="440.0" cy="280.0" r="3.4" fill="#eab308"/><circle cx="480.0" cy="280.0" r="3.4" fill="#eab308"/><circle cx="440.0" cy="200.0" r="3.4" fill="#eab308"/><circle cx="480.0" cy="200.0" r="3.4" fill="#eab308"/><circle cx="360.0" cy="120.0" r="3.4" fill="#eab308"/><circle cx="400.0" cy="120.0" r="3.4" fill="#eab308"/><circle cx="360.0" cy="40.0" r="3.4" fill="#eab308"/><circle cx="400.0" cy="40.0" r="3.4" fill="#eab308"/><circle cx="440.0" cy="120.0" r="3.4" fill="#eab308"/><circle cx="480.0" cy="120.0" r="3.4" fill="#eab308"/><circle cx="440.0" cy="40.0" r="3.4" fill="#eab308"/><circle cx="480.0" cy="40.0" r="3.4" fill="#eab308"/><circle cx="520.0" cy="280.0" r="3.4" fill="#eab308"/><circle cx="560.0" cy="280.0" r="3.4" fill="#eab308"/><circle cx="520.0" cy="200.0" r="3.4" fill="#eab308"/><circle cx="560.0" cy="200.0" r="3.4" fill="#eab308"/><circle cx="600.0" cy="280.0" r="3.4" fill="#eab308"/><circle cx="640.0" cy="280.0" r="3.4" fill="#eab308"/><circle cx="600.0" cy="200.0" r="3.4" fill="#eab308"/><circle cx="640.0" cy="200.0" r="3.4" fill="#eab308"/><circle cx="520.0" cy="120.0" r="3.4" fill="#eab308"/><circle cx="560.0" cy="120.0" r="3.4" fill="#eab308"/><circle cx="520.0" cy="40.0" r="3.4" fill="#eab308"/><circle cx="560.0" cy="40.0" r="3.4" fill="#eab308"/><circle cx="600.0" cy="120.0" r="3.4" fill="#eab308"/><circle cx="640.0" cy="120.0" r="3.4" fill="#eab308"/><circle cx="600.0" cy="40.0" r="3.4" fill="#eab308"/><circle cx="640.0" cy="40.0" r="3.4" fill="#eab308"/></g></svg>